<?xml version="1.0" encoding="UTF-8" standalone="no"?>
<!-- Created with Inkscape (http://www.inkscape.org/) -->
<svg id="svg2" xmlns:rdf="http://www.w3.org/1999/02/22-rdf-syntax-ns#" xmlns="http://www.w3.org/2000/svg" height="474.92" width="169.38" version="1.1" xmlns:cc="http://creativecommons.org/ns#" xmlns:dc="http://purl.org/dc/elements/1.1/">
	<metadata id="metadata7">
		<rdf:RDF>
			<cc:Work rdf:about="">
				<dc:format>image/svg+xml</dc:format>
				<dc:type rdf:resource="http://purl.org/dc/dcmitype/StillImage"/>
				<dc:title/>
			</cc:Work>
		</rdf:RDF>
	</metadata>
	<g id="base_layer" transform="translate(-9.211616,-38.046127)" stroke="#000" stroke-linecap="butt" fill="none">
		<path id="Head" d="m115,59.594a57.5,57.5,0,1,1,-115,0,57.5,57.5,0,1,1,115,0z" transform="matrix(1.1130435,0,0,1.1130435,30.09375,62.138313)" stroke-miterlimit="4" stroke-dasharray="none" stroke-width="0.8984375"/>
		<path id="path3787" stroke-linejoin="miter" d="m64,156.09,0,192-64,112" transform="translate(30.09375,36.375)" stroke-width="1px"/>
		<path id="path3789" stroke-linejoin="miter" d="m64,348.09,64,112" transform="translate(30.09375,36.375)" stroke-width="1px"/>
		<path id="path3791" stroke-linejoin="miter" d="m112,244.09-48-40-48,40" transform="translate(30.09375,36.375)" stroke-width="1px"/>
		<path id="ear_l" stroke-linejoin="miter" d="m102.02,40.796,5.3572,3.9201,4.3841,4.8965" transform="translate(30.09375,36.375)" stroke-width="1px"/>
		<path id="ear_r" stroke-linejoin="miter" d="m56.575,76.006-5.6098,5.0565-5.0155,5.0227" stroke-width="1px"/>
		<path id="path3002" stroke-linejoin="miter" d="m65.41,153.5c25.066,3.1753,39.501,1.8826,54.043,0" stroke-width="1px"/>
		<path id="path3004" d="m62.377,74.271a3.9143,3.6618,0,1,1,-7.8287,0,3.9143,3.6618,0,1,1,7.8287,0z" transform="matrix(1.3173377,0,0,1.2702575,-5.173885,20.120436)" stroke-miterlimit="4" stroke-dasharray="none" stroke-width="1"/>
		<path id="path3006" d="m107.33,74.902a5.177,4.5457,0,1,1,-10.354,0,5.177,4.5457,0,1,1,10.354,0z" transform="matrix(1.0615972,0,0,1.1812635,3.2981659,25.352971)" stroke-miterlimit="4" stroke-dasharray="none" stroke-width="1"/>
	</g>
	<g id="cat_layer" transform="translate(-9.211616,-38.046127)" stroke="#000" stroke-linecap="butt" fill="none">
		<path id="path3817" d="m115,59.594a57.5,57.5,0,1,1,-115,0,57.5,57.5,0,1,1,115,0z" transform="matrix(1.1130435,0,0,1.1130435,30.09375,62.138313)" stroke-miterlimit="4" stroke-dasharray="none" stroke-width="0.8984375"/>
		<path id="path3819" stroke-linejoin="miter" d="m64,156.09,0,192-64,112" transform="translate(30.09375,36.375)" stroke-width="1px"/>
		<path id="path3821" stroke-linejoin="miter" d="m64,348.09,64,112" transform="translate(30.09375,36.375)" stroke-width="1px"/>
		<path id="path3823" stroke-linejoin="miter" d="m112,244.09-48-40-48,40" transform="translate(30.09375,36.375)" stroke-width="1px"/>
		<path id="cat_ear_l" stroke-linejoin="miter" d="M88,33.094,132,18.452,121.86,64.639" transform="translate(30.09375,36.375)" stroke-width="1px"/>
		<path id="cat_ear_r" stroke-linejoin="miter" d="M69.707,69.188,25.712,54.546,35.848,100.73" stroke-width="1px"/>
		<path id="path3002-1" stroke-linejoin="miter" d="m63.976,155.01c10.26,24.83,48.828,19.094,58.686,1.0714" stroke-width="1px"/>
		<path id="path3004-9" d="m62.377,74.271a3.9143,3.6618,0,1,1,-7.8287,0,3.9143,3.6618,0,1,1,7.8287,0z" transform="matrix(1.3173377,0,0,1.2702575,-5.4630627,20.006236)" stroke-miterlimit="4" stroke-dasharray="none" stroke-width="1"/>
		<path id="path3006-2" d="m107.33,74.902a5.177,4.5457,0,1,1,-10.354,0,5.177,4.5457,0,1,1,10.354,0z" transform="matrix(1.0615972,0,0,1.1812635,3.008988,25.238771)" stroke-miterlimit="4" stroke-dasharray="none" stroke-width="1"/>
	</g>
</svg>
