<?xml version="1.0" encoding="UTF-8" standalone="no"?>
<!-- Created with Inkscape (http://www.inkscape.org/) -->

<svg
   xmlns:dc="http://purl.org/dc/elements/1.1/"
   xmlns:cc="http://creativecommons.org/ns#"
   xmlns:rdf="http://www.w3.org/1999/02/22-rdf-syntax-ns#"
   xmlns:svg="http://www.w3.org/2000/svg"
   xmlns="http://www.w3.org/2000/svg"
   xmlns:sodipodi="http://sodipodi.sourceforge.net/DTD/sodipodi-0.dtd"
   xmlns:inkscape="http://www.inkscape.org/namespaces/inkscape"
   width="169.3777"
   height="474.92264"
   id="svg2"
   version="1.1"
   inkscape:version="0.48.5 r10040"
   sodipodi:docname="polymorph-opt.svg">
  <sodipodi:namedview
     id="base"
     pagecolor="#ffffff"
     bordercolor="#666666"
     borderopacity="1.0"
     inkscape:pageopacity="0.0"
     inkscape:pageshadow="2"
     inkscape:zoom="2.8"
     inkscape:cx="94.44242"
     inkscape:cy="378.27867"
     inkscape:document-units="px"
     inkscape:current-layer="base_layer"
     showgrid="false"
     fit-margin-top="16"
     fit-margin-right="16"
     fit-margin-bottom="16"
     fit-margin-left="16"
     inkscape:window-width="1600"
     inkscape:window-height="834"
     inkscape:window-x="0"
     inkscape:window-y="27"
     inkscape:window-maximized="1"
     objecttolerance="10000">
    <inkscape:grid
       snapvisiblegridlinesonly="true"
       enabled="true"
       visible="true"
       empspacing="8"
       id="grid3764"
       type="xygrid"
       originx="20.882134px"
       originy="64.5px" />
  </sodipodi:namedview>
  <defs
     id="defs4" />
  <metadata
     id="metadata7">
    <rdf:RDF>
      <cc:Work
         rdf:about="">
        <dc:format>image/svg+xml</dc:format>
        <dc:type
           rdf:resource="http://purl.org/dc/dcmitype/StillImage" />
        <dc:title></dc:title>
      </cc:Work>
    </rdf:RDF>
  </metadata>
  <g
     style="display:inline"
     transform="translate(-9.211616,-38.046127)"
     id="base_layer"
     inkscape:groupmode="layer"
     inkscape:label="base">
    <path
       transform="matrix(1.1130435,0,0,1.1130435,30.09375,62.138313)"
       d="m 115,59.59375 a 57.5,57.5 0 1 1 -115,0 57.5,57.5 0 1 1 115,0 z"
       sodipodi:ry="57.5"
       sodipodi:rx="57.5"
       sodipodi:cy="59.59375"
       sodipodi:cx="57.5"
       id="Head"
       style="fill:none;stroke:#000000;stroke-width:0.8984375;stroke-linecap:butt;stroke-miterlimit:4;stroke-opacity:1;stroke-dasharray:none"
       sodipodi:type="arc" />
    <path
       sodipodi:nodetypes="ccc"
       transform="translate(30.09375,36.375)"
       inkscape:connector-curvature="0"
       id="path3787"
       d="m 64,156.09375 0,192 -64,112"
       style="fill:none;stroke:#000000;stroke-width:1px;stroke-linecap:butt;stroke-linejoin:miter;stroke-opacity:1" />
    <path
       sodipodi:nodetypes="cc"
       transform="translate(30.09375,36.375)"
       inkscape:connector-curvature="0"
       id="path3789"
       d="m 64,348.09375 64,112"
       style="fill:none;stroke:#000000;stroke-width:1px;stroke-linecap:butt;stroke-linejoin:miter;stroke-opacity:1" />
    <path
       sodipodi:nodetypes="ccc"
       transform="translate(30.09375,36.375)"
       inkscape:connector-curvature="0"
       id="path3791"
       d="m 112,244.09375 -48,-40 -48,40"
       style="fill:none;stroke:#000000;stroke-width:1px;stroke-linecap:butt;stroke-linejoin:miter;stroke-opacity:1" />
    <path
       inkscape:label="#ear_l"
       sodipodi:nodetypes="ccc"
       transform="translate(30.09375,36.375)"
       inkscape:connector-curvature="0"
       id="ear_l"
       d="m 102.01587,40.796163 5.35722,3.920055 4.38413,4.896451"
       style="fill:none;stroke:#000000;stroke-width:1px;stroke-linecap:butt;stroke-linejoin:miter;stroke-opacity:1" />
    <path
       sodipodi:nodetypes="ccc"
       inkscape:connector-curvature="0"
       id="ear_r"
       d="m 56.575189,76.006155 -5.609759,5.056476 -5.015483,5.022717"
       style="fill:none;stroke:#000000;stroke-width:1px;stroke-linecap:butt;stroke-linejoin:miter;stroke-opacity:1" />
    <path
       style="fill:none;stroke:#000000;stroke-width:1px;stroke-linecap:butt;stroke-linejoin:miter;stroke-opacity:1"
       d="m 65.410457,153.50467 c 25.066025,3.17527 39.500903,1.88265 54.043153,0"
       id="path3002"
       inkscape:connector-curvature="0"
       sodipodi:nodetypes="cc" />
    <path
       sodipodi:type="arc"
       style="fill:none;stroke:#000000;stroke-width:1;stroke-linecap:butt;stroke-miterlimit:4;stroke-opacity:1;stroke-dasharray:none"
       id="path3004"
       sodipodi:cx="58.462578"
       sodipodi:cy="74.270882"
       sodipodi:rx="3.9143412"
       sodipodi:ry="3.661803"
       d="m 62.376919,74.270882 a 3.9143412,3.661803 0 1 1 -7.828682,0 3.9143412,3.661803 0 1 1 7.828682,0 z"
       transform="matrix(1.3173377,0,0,1.2702575,-5.173885,20.120436)" />
    <path
       sodipodi:type="arc"
       style="fill:none;stroke:#000000;stroke-width:1;stroke-linecap:butt;stroke-miterlimit:4;stroke-opacity:1;stroke-dasharray:none"
       id="path3006"
       sodipodi:cx="102.15167"
       sodipodi:cy="74.902229"
       sodipodi:rx="5.177032"
       sodipodi:ry="4.5456862"
       d="m 107.3287,74.902229 a 5.177032,4.5456862 0 1 1 -10.35406,0 5.177032,4.5456862 0 1 1 10.35406,0 z"
       transform="matrix(1.0615972,0,0,1.1812635,3.2981659,25.352971)" />
  </g>
  <g
     style="display:inline"
     inkscape:label="cat"
     inkscape:groupmode="layer"
     id="cat_layer"
     transform="translate(-9.211616,-38.046127)">
    <path
       sodipodi:type="arc"
       style="fill:none;stroke:#000000;stroke-width:0.8984375;stroke-linecap:butt;stroke-miterlimit:4;stroke-opacity:1;stroke-dasharray:none"
       id="path3817"
       sodipodi:cx="57.5"
       sodipodi:cy="59.59375"
       sodipodi:rx="57.5"
       sodipodi:ry="57.5"
       d="m 115,59.59375 a 57.5,57.5 0 1 1 -115,0 57.5,57.5 0 1 1 115,0 z"
       transform="matrix(1.1130435,0,0,1.1130435,30.09375,62.138313)" />
    <path
       style="fill:none;stroke:#000000;stroke-width:1px;stroke-linecap:butt;stroke-linejoin:miter;stroke-opacity:1"
       d="m 64,156.09375 0,192 -64,112"
       id="path3819"
       inkscape:connector-curvature="0"
       transform="translate(30.09375,36.375)"
       sodipodi:nodetypes="ccc" />
    <path
       style="fill:none;stroke:#000000;stroke-width:1px;stroke-linecap:butt;stroke-linejoin:miter;stroke-opacity:1"
       d="m 64,348.09375 64,112"
       id="path3821"
       inkscape:connector-curvature="0"
       transform="translate(30.09375,36.375)"
       sodipodi:nodetypes="cc" />
    <path
       style="fill:none;stroke:#000000;stroke-width:1px;stroke-linecap:butt;stroke-linejoin:miter;stroke-opacity:1"
       d="m 112,244.09375 -48,-40 -48,40"
       id="path3823"
       inkscape:connector-curvature="0"
       transform="translate(30.09375,36.375)"
       sodipodi:nodetypes="ccc" />
    <path
       style="fill:none;stroke:#000000;stroke-width:1px;stroke-linecap:butt;stroke-linejoin:miter;stroke-opacity:1"
       d="M 88,33.09375 131.99556,18.452252 121.85875,64.638688"
       id="cat_ear_l"
       inkscape:connector-curvature="0"
       transform="translate(30.09375,36.375)"
       sodipodi:nodetypes="ccc"
       inkscape:label="#ear_l" />
    <path
       inkscape:label="#ear_r"
       style="fill:none;stroke:#000000;stroke-width:1px;stroke-linecap:butt;stroke-linejoin:miter;stroke-opacity:1"
       d="M 69.707172,69.187625 25.711616,54.546127 35.848422,100.73256"
       id="cat_ear_r"
       inkscape:connector-curvature="0"
       sodipodi:nodetypes="ccc" />
    <path
       style="fill:none;stroke:#000000;stroke-width:1px;stroke-linecap:butt;stroke-linejoin:miter;stroke-opacity:1;display:inline"
       d="m 63.975752,155.00803 c 10.260423,24.8299 48.827648,19.09366 58.686018,1.07143"
       id="path3002-1"
       inkscape:connector-curvature="0"
       sodipodi:nodetypes="cc" />
    <path
       sodipodi:type="arc"
       style="fill:none;stroke:#000000;stroke-width:1;stroke-linecap:butt;stroke-miterlimit:4;stroke-opacity:1;stroke-dasharray:none;display:inline"
       id="path3004-9"
       sodipodi:cx="58.462578"
       sodipodi:cy="74.270882"
       sodipodi:rx="3.9143412"
       sodipodi:ry="3.661803"
       d="m 62.376919,74.270882 a 3.9143412,3.661803 0 1 1 -7.828682,0 3.9143412,3.661803 0 1 1 7.828682,0 z"
       transform="matrix(1.3173377,0,0,1.2702575,-5.4630627,20.006236)" />
    <path
       sodipodi:type="arc"
       style="fill:none;stroke:#000000;stroke-width:1;stroke-linecap:butt;stroke-miterlimit:4;stroke-opacity:1;stroke-dasharray:none;display:inline"
       id="path3006-2"
       sodipodi:cx="102.15167"
       sodipodi:cy="74.902229"
       sodipodi:rx="5.177032"
       sodipodi:ry="4.5456862"
       d="m 107.3287,74.902229 a 5.177032,4.5456862 0 1 1 -10.35406,0 5.177032,4.5456862 0 1 1 10.35406,0 z"
       transform="matrix(1.0615972,0,0,1.1812635,3.008988,25.238771)" />
  </g>
</svg>
